# MagicaVoxel @ Ephtracy

# group
o 

# material
mtllib cornhome.mtl
usemtl palette

# normals
vn -1 0 0
vn 1 0 0
vn 0 0 1
vn 0 0 -1
vn 0 -1 0
vn 0 1 0

# texcoords
vt 0.369141 0.5
vt 0.373047 0.5
vt 0.537109 0.5
vt 0.865234 0.5
vt 0.978516 0.5
vt 0.982422 0.5

# verts
v -2.8 0 2
v -2.8 0 1
v -2.8 0 0.9
v -2.8 0 0.6
v -2.8 0 0.5
v -2.8 0 0.3
v -2.8 0.1 1.4
v -2.8 0.1 1.3
v -2.8 0.1 1
v -2.8 0.1 0.9
v -2.8 0.1 0.7
v -2.8 0.1 0.6
v -2.8 0.1 0.5
v -2.8 0.2 2
v -2.8 0.2 1.4
v -2.8 0.2 1.3
v -2.8 0.2 0.7
v -2.8 0.2 0.6
v -2.8 0.2 0.3
v -2.7 0.2 1.6
v -2.7 0.2 1.4
v -2.7 0.2 1.3
v -2.7 0.2 0.7
v -2.7 0.2 0.6
v -2.7 0.2 0.3
v -2.7 0.8 1.6
v -2.7 0.8 0.3
v -2.6 0.2 1.7
v -2.6 0.2 1.6
v -2.6 0.7 1.7
v -2.6 0.7 1.6
v -2.6 0.8 1.6
v -2.6 0.8 0.3
v -2.6 0.9 1.6
v -2.6 0.9 0.3
v -2.5 0.2 1.5
v -2.5 0.2 1.1
v -2.5 0.2 1
v -2.5 0.2 0.7
v -2.5 0.4 1.5
v -2.5 0.4 1.1
v -2.5 0.4 1
v -2.5 0.4 0.7
v -2.5 0.9 1.6
v -2.5 0.9 0.3
v -2.5 1.1 1.6
v -2.5 1.1 0.3
v -2.4 0.2 1.8
v -2.4 0.2 1.7
v -2.4 0.7 1.8
v -2.4 0.7 1.7
v -2.4 1.1 1.3
v -2.4 1.1 0.3
v -2.4 1.2 1.3
v -2.4 1.2 0.3
v -2.3 1.1 1.6
v -2.3 1.1 1.3
v -2.3 1.2 1.6
v -2.3 1.2 1.3
v -2.2 0.2 0.9
v -2.2 0.2 0.8
v -2.2 0.4 0.9
v -2.2 0.4 0.8
v -2.1 0.2 1
v -2.1 0.2 0.9
v -2.1 0.4 1
v -2.1 0.4 0.9
v -1.9 0.2 1.8
v -1.9 0.2 1.7
v -1.9 0.2 1
v -1.9 0.2 0.6
v -1.9 0.3 1
v -1.9 0.3 0.6
v -1.9 0.7 1.8
v -1.9 0.7 1.7
v -1.8 0.2 1.5
v -1.8 0.2 1.2
v -1.8 0.4 1.5
v -1.8 0.4 1.2
v -1.7 0.2 1.7
v -1.7 0.2 1.6
v -1.7 0.7 1.7
v -1.7 0.7 1.6
v -1.5 0 2
v -1.5 0 0.3
v -1.5 0.1 2
v -1.5 0.1 0.3
v -1.5 0.2 1.6
v -1.5 0.2 0.4
v -1.5 0.7 1.6
v -1.5 0.7 0.4
v -2.6 0 2
v -2.6 0 0.3
v -2.6 0.1 2
v -2.6 0.1 1.9
v -2.6 0.1 1.8
v -2.6 0.1 1.7
v -2.6 0.1 0.3
v -2.6 0.2 1.6
v -2.6 0.2 0.4
v -2.6 0.7 1.6
v -2.6 0.7 0.4
v -2.4 0.2 1.7
v -2.4 0.2 1.6
v -2.4 0.7 1.7
v -2.4 0.7 1.6
v -2.3 0.2 1.8
v -2.3 0.2 1.7
v -2.3 0.2 1.5
v -2.3 0.2 1.3
v -2.3 0.2 1.2
v -2.3 0.2 1.1
v -2.3 0.2 0.9
v -2.3 0.2 0.7
v -2.3 0.4 1.5
v -2.3 0.4 1.1
v -2.3 0.4 0.9
v -2.3 0.4 0.7
v -2.3 0.7 1.8
v -2.3 0.7 1.7
v -2.2 0.2 1
v -2.2 0.2 0.9
v -2.2 0.4 1
v -2.2 0.4 0.9
v -2.1 0.2 0.9
v -2.1 0.2 0.8
v -2.1 0.4 0.9
v -2.1 0.4 0.8
v -2 0.2 1
v -2 0.2 0.9
v -2 0.4 1
v -2 0.4 0.9
v -1.8 1.1 1.6
v -1.8 1.1 1.2
v -1.8 1.2 1.6
v -1.8 1.2 1.2
v -1.7 0.2 1.8
v -1.7 0.2 1.7
v -1.7 0.2 1
v -1.7 0.2 0.6
v -1.7 0.3 1
v -1.7 0.3 0.6
v -1.7 0.7 1.8
v -1.7 0.7 1.7
v -1.7 1.1 1.2
v -1.7 1.1 0.3
v -1.7 1.2 1.2
v -1.7 1.2 0.3
v -1.6 0.2 1.5
v -1.6 0.2 1.2
v -1.6 0.4 1.5
v -1.6 0.4 1.2
v -1.6 0.9 1.6
v -1.6 0.9 0.3
v -1.6 1.1 1.6
v -1.6 1.1 0.3
v -1.5 0.2 1.7
v -1.5 0.2 1.6
v -1.5 0.7 1.7
v -1.5 0.7 1.6
v -1.5 0.8 1.6
v -1.5 0.8 0.3
v -1.5 0.9 1.6
v -1.5 0.9 0.3
v -1.4 0.2 1.6
v -1.4 0.2 1.5
v -1.4 0.2 1.2
v -1.4 0.2 1.1
v -1.4 0.2 0.3
v -1.4 0.8 1.6
v -1.4 0.8 0.3
v -1.3 0 2
v -1.3 0 1.3
v -1.3 0 1.2
v -1.3 0 0.9
v -1.3 0 0.8
v -1.3 0 0.6
v -1.3 0 0.5
v -1.3 0 0.3
v -1.3 0.1 1.6
v -1.3 0.1 1.5
v -1.3 0.1 1.3
v -1.3 0.1 1.2
v -1.3 0.1 1.1
v -1.3 0.1 0.9
v -1.3 0.1 0.8
v -1.3 0.1 0.6
v -1.3 0.1 0.5
v -1.3 0.2 2
v -1.3 0.2 1.6
v -1.3 0.2 1.5
v -1.3 0.2 1.2
v -1.3 0.2 1.1
v -1.3 0.2 0.3
v -2.8 0 2
v -2.8 0.2 2
v -2.6 0 2
v -2.6 0.1 2
v -2.6 0.2 2
v -2.5 0.1 2
v -2.5 0.2 2
v -1.7 0.1 2
v -1.7 0.2 2
v -1.6 0.1 2
v -1.6 0.2 2
v -1.5 0 2
v -1.5 0.1 2
v -1.5 0.2 2
v -1.4 0.1 2
v -1.4 0.2 2
v -1.3 0 2
v -1.3 0.2 2
v -2.4 0.2 1.8
v -2.4 0.7 1.8
v -2.3 0.2 1.8
v -2.3 0.7 1.8
v -1.9 0.2 1.8
v -1.9 0.7 1.8
v -1.7 0.2 1.8
v -1.7 0.7 1.8
v -2.6 0.2 1.7
v -2.6 0.7 1.7
v -2.5 0.2 1.7
v -2.4 0.2 1.7
v -2.4 0.7 1.7
v -1.7 0.2 1.7
v -1.7 0.7 1.7
v -1.5 0.2 1.7
v -1.5 0.7 1.7
v -2.7 0.2 1.6
v -2.7 0.8 1.6
v -2.6 0.2 1.6
v -2.6 0.7 1.6
v -2.6 0.8 1.6
v -2.6 0.9 1.6
v -2.5 0.9 1.6
v -2.5 1.1 1.6
v -2.4 0.7 1.6
v -2.3 1.1 1.6
v -2.3 1.2 1.6
v -2.2 0.9 1.6
v -2.2 1.1 1.6
v -1.9 0.9 1.6
v -1.9 1.1 1.6
v -1.8 1.1 1.6
v -1.8 1.2 1.6
v -1.7 0.7 1.6
v -1.6 0.9 1.6
v -1.6 1.1 1.6
v -1.5 0.2 1.6
v -1.5 0.7 1.6
v -1.5 0.8 1.6
v -1.5 0.9 1.6
v -1.4 0.2 1.6
v -1.4 0.8 1.6
v -2.5 0.2 1.5
v -2.5 0.4 1.5
v -2.3 0.2 1.5
v -2.3 0.4 1.5
v -1.8 0.2 1.5
v -1.8 0.4 1.5
v -1.6 0.2 1.5
v -1.6 0.4 1.5
v -2.4 1.1 1.3
v -2.4 1.2 1.3
v -2.3 1.1 1.3
v -2.3 1.2 1.3
v -1.8 1.1 1.2
v -1.8 1.2 1.2
v -1.7 1.1 1.2
v -1.7 1.2 1.2
v -2.5 0.2 1
v -2.5 0.4 1
v -2.3 0.2 1
v -2.3 0.4 1
v -2.2 0.2 1
v -2.2 0.4 1
v -2.1 0.2 1
v -2.1 0.4 1
v -2 0.2 1
v -2 0.4 1
v -1.9 0.2 1
v -1.9 0.3 1
v -1.7 0.2 1
v -1.7 0.3 1
v -2.2 0.2 0.9
v -2.2 0.4 0.9
v -2.1 0.2 0.9
v -2.1 0.4 0.9
v -2.6 0.2 0.4
v -2.6 0.7 0.4
v -1.5 0.2 0.4
v -1.5 0.7 0.4
v -2.4 0.2 1.7
v -2.4 0.7 1.7
v -2.3 0.2 1.7
v -2.3 0.7 1.7
v -1.9 0.2 1.7
v -1.9 0.7 1.7
v -1.7 0.2 1.7
v -1.7 0.7 1.7
v -2.6 0.2 1.6
v -2.6 0.7 1.6
v -2.4 0.2 1.6
v -2.4 0.7 1.6
v -1.7 0.2 1.6
v -1.7 0.7 1.6
v -1.5 0.2 1.6
v -1.5 0.7 1.6
v -1.8 0.2 1.2
v -1.8 0.4 1.2
v -1.6 0.2 1.2
v -1.6 0.4 1.2
v -2.5 0.2 1.1
v -2.5 0.4 1.1
v -2.3 0.2 1.1
v -2.3 0.4 1.1
v -2.3 0.2 0.9
v -2.3 0.4 0.9
v -2.2 0.2 0.9
v -2.2 0.4 0.9
v -2.1 0.2 0.9
v -2.1 0.4 0.9
v -2 0.2 0.9
v -2 0.4 0.9
v -2.2 0.2 0.8
v -2.2 0.4 0.8
v -2.1 0.2 0.8
v -2.1 0.4 0.8
v -2.5 0.2 0.7
v -2.5 0.4 0.7
v -2.3 0.2 0.7
v -2.3 0.4 0.7
v -1.9 0.2 0.6
v -1.9 0.3 0.6
v -1.7 0.2 0.6
v -1.7 0.3 0.6
v -2.8 0 0.3
v -2.8 0.2 0.3
v -2.7 0.2 0.3
v -2.7 0.8 0.3
v -2.6 0 0.3
v -2.6 0.1 0.3
v -2.6 0.8 0.3
v -2.6 0.9 0.3
v -2.5 0.9 0.3
v -2.5 1.1 0.3
v -2.4 1.1 0.3
v -2.4 1.2 0.3
v -1.7 1.1 0.3
v -1.7 1.2 0.3
v -1.6 0.9 0.3
v -1.6 1.1 0.3
v -1.5 0 0.3
v -1.5 0.1 0.3
v -1.5 0.8 0.3
v -1.5 0.9 0.3
v -1.4 0.2 0.3
v -1.4 0.8 0.3
v -1.3 0 0.3
v -1.3 0.2 0.3
v -2.8 0 2
v -2.6 0 2
v -1.5 0 2
v -1.3 0 2
v -1.4 0 1.3
v -1.3 0 1.3
v -1.4 0 1.2
v -1.3 0 1.2
v -2.8 0 1
v -2.7 0 1
v -2.8 0 0.9
v -2.7 0 0.9
v -1.4 0 0.9
v -1.3 0 0.9
v -1.4 0 0.8
v -1.3 0 0.8
v -2.8 0 0.6
v -2.7 0 0.6
v -1.4 0 0.6
v -1.3 0 0.6
v -2.8 0 0.5
v -2.7 0 0.5
v -1.4 0 0.5
v -1.3 0 0.5
v -2.8 0 0.3
v -2.6 0 0.3
v -1.5 0 0.3
v -1.3 0 0.3
v -2.6 0.1 2
v -2.5 0.1 2
v -1.7 0.1 2
v -1.6 0.1 2
v -1.5 0.1 2
v -2.6 0.1 1.9
v -2.5 0.1 1.9
v -2.3 0.1 1.9
v -2.2 0.1 1.9
v -2 0.1 1.9
v -1.9 0.1 1.9
v -1.7 0.1 1.9
v -1.6 0.1 1.9
v -2.6 0.1 1.8
v -2.5 0.1 1.8
v -2.3 0.1 1.8
v -2.2 0.1 1.8
v -2.1 0.1 1.8
v -2 0.1 1.8
v -1.9 0.1 1.8
v -2.6 0.1 1.7
v -2.5 0.1 1.7
v -2.2 0.1 1.7
v -2.1 0.1 1.7
v -2.1 0.1 1.4
v -2 0.1 1.4
v -2.3 0.1 1.3
v -2.2 0.1 1.3
v -2.1 0.1 1.3
v -2 0.1 1.3
v -2.3 0.1 1.2
v -2.2 0.1 1.2
v -2 0.1 1.2
v -1.9 0.1 1.2
v -2 0.1 1.1
v -1.9 0.1 1.1
v -2.6 0.1 0.3
v -1.5 0.1 0.3
v -2.6 0.7 1.6
v -2.4 0.7 1.6
v -1.7 0.7 1.6
v -1.5 0.7 1.6
v -2.6 0.7 0.4
v -1.5 0.7 0.4
v -2.8 0.2 2
v -2.6 0.2 2
v -2.5 0.2 2
v -1.7 0.2 2
v -1.6 0.2 2
v -1.5 0.2 2
v -1.4 0.2 2
v -1.3 0.2 2
v -2.6 0.2 1.9
v -2.5 0.2 1.9
v -2.3 0.2 1.9
v -2.2 0.2 1.9
v -2 0.2 1.9
v -1.9 0.2 1.9
v -1.7 0.2 1.9
v -1.6 0.2 1.9
v -1.5 0.2 1.9
v -1.4 0.2 1.9
v -2.7 0.2 1.8
v -2.5 0.2 1.8
v -2.4 0.2 1.8
v -2.3 0.2 1.8
v -2.2 0.2 1.8
v -2.1 0.2 1.8
v -2 0.2 1.8
v -1.9 0.2 1.8
v -1.7 0.2 1.8
v -2.7 0.2 1.7
v -2.6 0.2 1.7
v -2.5 0.2 1.7
v -2.4 0.2 1.7
v -2.3 0.2 1.7
v -2.2 0.2 1.7
v -2.1 0.2 1.7
v -1.9 0.2 1.7
v -1.7 0.2 1.7
v -1.5 0.2 1.7
v -1.4 0.2 1.7
v -2.7 0.2 1.6
v -2.6 0.2 1.6
v -2.4 0.2 1.6
v -1.7 0.2 1.6
v -1.5 0.2 1.6
v -1.4 0.2 1.6
v -1.3 0.2 1.6
v -2.5 0.2 1.5
v -2.3 0.2 1.5
v -1.8 0.2 1.5
v -1.6 0.2 1.5
v -1.4 0.2 1.5
v -1.3 0.2 1.5
v -2.8 0.2 1.4
v -2.7 0.2 1.4
v -2.1 0.2 1.4
v -2 0.2 1.4
v -2.8 0.2 1.3
v -2.7 0.2 1.3
v -2.3 0.2 1.3
v -2.2 0.2 1.3
v -2.1 0.2 1.3
v -2 0.2 1.3
v -2.3 0.2 1.2
v -2.2 0.2 1.2
v -2 0.2 1.2
v -1.9 0.2 1.2
v -1.8 0.2 1.2
v -1.6 0.2 1.2
v -1.4 0.2 1.2
v -1.3 0.2 1.2
v -2.5 0.2 1.1
v -2.3 0.2 1.1
v -2 0.2 1.1
v -1.9 0.2 1.1
v -1.4 0.2 1.1
v -1.3 0.2 1.1
v -2.5 0.2 1
v -2.3 0.2 1
v -2.2 0.2 1
v -2.1 0.2 1
v -2 0.2 1
v -1.9 0.2 1
v -1.7 0.2 1
v -2.3 0.2 0.9
v -2.2 0.2 0.9
v -2.1 0.2 0.9
v -2 0.2 0.9
v -2.2 0.2 0.8
v -2.1 0.2 0.8
v -2.8 0.2 0.7
v -2.7 0.2 0.7
v -2.5 0.2 0.7
v -2.3 0.2 0.7
v -2.8 0.2 0.6
v -2.7 0.2 0.6
v -1.9 0.2 0.6
v -1.7 0.2 0.6
v -2.6 0.2 0.4
v -1.5 0.2 0.4
v -2.8 0.2 0.3
v -2.7 0.2 0.3
v -1.4 0.2 0.3
v -1.3 0.2 0.3
v -1.9 0.3 1
v -1.7 0.3 1
v -1.9 0.3 0.6
v -1.7 0.3 0.6
v -2.5 0.4 1.5
v -2.3 0.4 1.5
v -1.8 0.4 1.5
v -1.6 0.4 1.5
v -1.8 0.4 1.2
v -1.6 0.4 1.2
v -2.5 0.4 1.1
v -2.3 0.4 1.1
v -2.5 0.4 1
v -2.3 0.4 1
v -2.2 0.4 1
v -2.1 0.4 1
v -2 0.4 1
v -2.3 0.4 0.9
v -2.2 0.4 0.9
v -2.1 0.4 0.9
v -2 0.4 0.9
v -2.2 0.4 0.8
v -2.1 0.4 0.8
v -2.5 0.4 0.7
v -2.3 0.4 0.7
v -2.4 0.7 1.8
v -2.3 0.7 1.8
v -1.9 0.7 1.8
v -1.7 0.7 1.8
v -2.6 0.7 1.7
v -2.4 0.7 1.7
v -2.3 0.7 1.7
v -1.9 0.7 1.7
v -1.7 0.7 1.7
v -1.5 0.7 1.7
v -2.6 0.7 1.6
v -2.4 0.7 1.6
v -1.7 0.7 1.6
v -1.5 0.7 1.6
v -2.7 0.8 1.6
v -2.6 0.8 1.6
v -1.5 0.8 1.6
v -1.4 0.8 1.6
v -2.7 0.8 0.3
v -2.6 0.8 0.3
v -1.5 0.8 0.3
v -1.4 0.8 0.3
v -2.6 0.9 1.6
v -2.5 0.9 1.6
v -1.6 0.9 1.6
v -1.5 0.9 1.6
v -2.6 0.9 0.3
v -2.5 0.9 0.3
v -1.6 0.9 0.3
v -1.5 0.9 0.3
v -2.5 1.1 1.6
v -2.3 1.1 1.6
v -1.8 1.1 1.6
v -1.6 1.1 1.6
v -2.4 1.1 1.3
v -2.3 1.1 1.3
v -1.8 1.1 1.2
v -1.7 1.1 1.2
v -2.5 1.1 0.3
v -2.4 1.1 0.3
v -1.7 1.1 0.3
v -1.6 1.1 0.3
v -2.3 1.2 1.6
v -1.8 1.2 1.6
v -2.4 1.2 1.3
v -2.3 1.2 1.3
v -1.8 1.2 1.2
v -1.7 1.2 1.2
v -2.4 1.2 0.3
v -1.7 1.2 0.3

# faces
f 7/1/1 2/1/1 1/1/1
f 8/1/1 2/1/1 7/1/1
f 9/3/1 3/3/1 2/3/1
f 9/1/1 2/1/1 8/1/1
f 10/1/1 4/1/1 3/1/1
f 10/3/1 3/3/1 9/3/1
f 11/1/1 4/1/1 10/1/1
f 12/3/1 5/3/1 4/3/1
f 12/1/1 4/1/1 11/1/1
f 13/1/1 6/1/1 5/1/1
f 13/3/1 5/3/1 12/3/1
f 14/1/1 7/1/1 1/1/1
f 15/3/1 8/3/1 7/3/1
f 15/1/1 7/1/1 14/1/1
f 16/1/1 9/1/1 8/1/1
f 16/3/1 8/3/1 15/3/1
f 16/1/1 11/1/1 10/1/1
f 16/1/1 10/1/1 9/1/1
f 17/3/1 12/3/1 11/3/1
f 17/1/1 11/1/1 16/1/1
f 18/1/1 13/1/1 12/1/1
f 18/3/1 12/3/1 17/3/1
f 19/1/1 6/1/1 13/1/1
f 19/1/1 13/1/1 18/1/1
f 26/4/1 21/4/1 20/4/1
f 26/4/1 25/4/1 24/4/1
f 26/4/1 24/4/1 23/4/1
f 26/4/1 23/4/1 22/4/1
f 26/4/1 22/4/1 21/4/1
f 27/4/1 25/4/1 26/4/1
f 30/2/1 29/2/1 28/2/1
f 31/2/1 29/2/1 30/2/1
f 34/4/1 33/4/1 32/4/1
f 35/4/1 33/4/1 34/4/1
f 40/2/1 37/2/1 36/2/1
f 41/2/1 37/2/1 40/2/1
f 42/2/1 39/2/1 38/2/1
f 43/2/1 39/2/1 42/2/1
f 46/4/1 45/4/1 44/4/1
f 47/4/1 45/4/1 46/4/1
f 50/2/1 49/2/1 48/2/1
f 51/2/1 49/2/1 50/2/1
f 54/4/1 53/4/1 52/4/1
f 55/4/1 53/4/1 54/4/1
f 58/4/1 57/4/1 56/4/1
f 59/4/1 57/4/1 58/4/1
f 62/6/1 61/6/1 60/6/1
f 63/6/1 61/6/1 62/6/1
f 66/6/1 65/6/1 64/6/1
f 67/6/1 65/6/1 66/6/1
f 72/2/1 71/2/1 70/2/1
f 73/2/1 71/2/1 72/2/1
f 74/2/1 69/2/1 68/2/1
f 75/2/1 69/2/1 74/2/1
f 78/2/1 77/2/1 76/2/1
f 79/2/1 77/2/1 78/2/1
f 82/2/1 81/2/1 80/2/1
f 83/2/1 81/2/1 82/2/1
f 86/1/1 85/1/1 84/1/1
f 87/1/1 85/1/1 86/1/1
f 90/4/1 89/4/1 88/4/1
f 91/4/1 89/4/1 90/4/1
f 92/1/2 93/1/2 94/1/2
f 94/1/2 93/1/2 95/1/2
f 95/1/2 93/1/2 96/1/2
f 96/1/2 93/1/2 97/1/2
f 97/1/2 93/1/2 98/1/2
f 99/4/2 100/4/2 101/4/2
f 101/4/2 100/4/2 102/4/2
f 103/2/2 104/2/2 105/2/2
f 105/2/2 104/2/2 106/2/2
f 109/2/2 110/2/2 115/2/2
f 110/2/2 111/2/2 115/2/2
f 111/2/2 112/2/2 115/2/2
f 115/2/2 112/2/2 116/2/2
f 113/2/2 114/2/2 117/2/2
f 117/2/2 114/2/2 118/2/2
f 107/2/2 108/2/2 119/2/2
f 119/2/2 108/2/2 120/2/2
f 121/6/2 122/6/2 123/6/2
f 123/6/2 122/6/2 124/6/2
f 125/6/2 126/6/2 127/6/2
f 127/6/2 126/6/2 128/6/2
f 129/6/2 130/6/2 131/6/2
f 131/6/2 130/6/2 132/6/2
f 133/4/2 134/4/2 135/4/2
f 135/4/2 134/4/2 136/4/2
f 139/2/2 140/2/2 141/2/2
f 141/2/2 140/2/2 142/2/2
f 137/2/2 138/2/2 143/2/2
f 143/2/2 138/2/2 144/2/2
f 145/4/2 146/4/2 147/4/2
f 147/4/2 146/4/2 148/4/2
f 149/2/2 150/2/2 151/2/2
f 151/2/2 150/2/2 152/2/2
f 153/4/2 154/4/2 155/4/2
f 155/4/2 154/4/2 156/4/2
f 157/2/2 158/2/2 159/2/2
f 159/2/2 158/2/2 160/2/2
f 161/4/2 162/4/2 163/4/2
f 163/4/2 162/4/2 164/4/2
f 165/4/2 166/4/2 170/4/2
f 168/4/2 169/4/2 170/4/2
f 167/4/2 168/4/2 170/4/2
f 166/4/2 167/4/2 170/4/2
f 170/4/2 169/4/2 171/4/2
f 172/1/2 173/1/2 180/1/2
f 180/1/2 173/1/2 181/1/2
f 173/3/2 174/3/2 182/3/2
f 181/1/2 173/1/2 182/1/2
f 174/1/2 175/1/2 183/1/2
f 182/3/2 174/3/2 183/3/2
f 183/1/2 175/1/2 184/1/2
f 175/3/2 176/3/2 185/3/2
f 184/1/2 175/1/2 185/1/2
f 176/1/2 177/1/2 186/1/2
f 185/3/2 176/3/2 186/3/2
f 177/3/2 178/3/2 187/3/2
f 186/1/2 177/1/2 187/1/2
f 178/1/2 179/1/2 188/1/2
f 187/3/2 178/3/2 188/3/2
f 172/1/2 180/1/2 189/1/2
f 180/3/2 181/3/2 190/3/2
f 189/1/2 180/1/2 190/1/2
f 181/1/2 182/1/2 191/1/2
f 190/3/2 181/3/2 191/3/2
f 182/1/2 183/1/2 191/1/2
f 183/3/2 184/3/2 192/3/2
f 191/1/2 183/1/2 192/1/2
f 186/1/2 187/1/2 193/1/2
f 192/3/2 184/3/2 193/3/2
f 184/1/2 185/1/2 193/1/2
f 187/1/2 188/1/2 193/1/2
f 185/1/2 186/1/2 193/1/2
f 188/1/2 179/1/2 194/1/2
f 193/1/2 188/1/2 194/1/2
f 197/1/3 196/1/3 195/1/3
f 198/1/3 196/1/3 197/1/3
f 199/1/3 196/1/3 198/1/3
f 200/3/3 199/3/3 198/3/3
f 201/3/3 199/3/3 200/3/3
f 202/1/3 201/1/3 200/1/3
f 203/1/3 201/1/3 202/1/3
f 204/3/3 203/3/3 202/3/3
f 205/3/3 203/3/3 204/3/3
f 207/1/3 205/1/3 204/1/3
f 208/1/3 205/1/3 207/1/3
f 209/1/3 207/1/3 206/1/3
f 209/3/3 208/3/3 207/3/3
f 210/3/3 208/3/3 209/3/3
f 211/1/3 209/1/3 206/1/3
f 211/1/3 210/1/3 209/1/3
f 212/1/3 210/1/3 211/1/3
f 215/2/3 214/2/3 213/2/3
f 216/2/3 214/2/3 215/2/3
f 219/2/3 218/2/3 217/2/3
f 220/2/3 218/2/3 219/2/3
f 223/2/3 222/2/3 221/2/3
f 224/2/3 222/2/3 223/2/3
f 225/2/3 222/2/3 224/2/3
f 228/2/3 227/2/3 226/2/3
f 229/2/3 227/2/3 228/2/3
f 232/4/3 231/4/3 230/4/3
f 233/4/3 231/4/3 232/4/3
f 234/4/3 231/4/3 233/4/3
f 236/4/3 235/4/3 234/4/3
f 236/4/3 234/4/3 233/4/3
f 238/4/3 236/4/3 233/4/3
f 238/4/3 237/4/3 236/4/3
f 239/4/3 237/4/3 238/4/3
f 241/4/3 239/4/3 238/4/3
f 241/4/3 240/4/3 239/4/3
f 242/4/3 240/4/3 241/4/3
f 243/4/3 241/4/3 238/4/3
f 243/5/3 242/5/3 241/5/3
f 244/4/3 240/4/3 242/4/3
f 244/5/3 242/5/3 243/5/3
f 245/4/3 244/4/3 243/4/3
f 245/4/3 240/4/3 244/4/3
f 246/4/3 240/4/3 245/4/3
f 247/4/3 243/4/3 238/4/3
f 247/4/3 245/4/3 243/4/3
f 248/4/3 245/4/3 247/4/3
f 249/4/3 245/4/3 248/4/3
f 251/4/3 248/4/3 247/4/3
f 252/4/3 248/4/3 251/4/3
f 253/4/3 248/4/3 252/4/3
f 254/4/3 251/4/3 250/4/3
f 254/4/3 252/4/3 251/4/3
f 255/4/3 252/4/3 254/4/3
f 258/2/3 257/2/3 256/2/3
f 259/2/3 257/2/3 258/2/3
f 262/2/3 261/2/3 260/2/3
f 263/2/3 261/2/3 262/2/3
f 266/4/3 265/4/3 264/4/3
f 267/4/3 265/4/3 266/4/3
f 270/4/3 269/4/3 268/4/3
f 271/4/3 269/4/3 270/4/3
f 274/2/3 273/2/3 272/2/3
f 275/2/3 273/2/3 274/2/3
f 276/6/3 275/6/3 274/6/3
f 277/6/3 275/6/3 276/6/3
f 280/6/3 279/6/3 278/6/3
f 281/6/3 279/6/3 280/6/3
f 284/2/3 283/2/3 282/2/3
f 285/2/3 283/2/3 284/2/3
f 288/6/3 287/6/3 286/6/3
f 289/6/3 287/6/3 288/6/3
f 292/4/3 291/4/3 290/4/3
f 293/4/3 291/4/3 292/4/3
f 294/2/4 295/2/4 296/2/4
f 296/2/4 295/2/4 297/2/4
f 298/2/4 299/2/4 300/2/4
f 300/2/4 299/2/4 301/2/4
f 302/2/4 303/2/4 304/2/4
f 304/2/4 303/2/4 305/2/4
f 306/2/4 307/2/4 308/2/4
f 308/2/4 307/2/4 309/2/4
f 310/2/4 311/2/4 312/2/4
f 312/2/4 311/2/4 313/2/4
f 314/2/4 315/2/4 316/2/4
f 316/2/4 315/2/4 317/2/4
f 318/6/4 319/6/4 320/6/4
f 320/6/4 319/6/4 321/6/4
f 322/6/4 323/6/4 324/6/4
f 324/6/4 323/6/4 325/6/4
f 326/6/4 327/6/4 328/6/4
f 328/6/4 327/6/4 329/6/4
f 330/2/4 331/2/4 332/2/4
f 332/2/4 331/2/4 333/2/4
f 334/2/4 335/2/4 336/2/4
f 336/2/4 335/2/4 337/2/4
f 338/1/4 339/1/4 340/1/4
f 338/1/4 340/1/4 342/1/4
f 342/1/4 340/1/4 343/1/4
f 340/4/4 341/4/4 344/4/4
f 344/4/4 345/4/4 346/4/4
f 346/4/4 347/4/4 348/4/4
f 346/4/4 348/4/4 350/4/4
f 348/4/4 349/4/4 350/4/4
f 350/4/4 349/4/4 351/4/4
f 344/4/4 346/4/4 352/4/4
f 346/4/4 350/4/4 352/4/4
f 352/4/4 350/4/4 353/4/4
f 343/1/4 340/1/4 355/1/4
f 340/4/4 344/4/4 356/4/4
f 344/4/4 352/4/4 356/4/4
f 356/4/4 352/4/4 357/4/4
f 354/1/4 355/1/4 358/1/4
f 355/1/4 340/1/4 358/1/4
f 340/4/4 356/4/4 358/4/4
f 358/4/4 356/4/4 359/4/4
f 354/1/4 358/1/4 360/1/4
f 360/1/4 358/1/4 361/1/4
f 366/1/5 365/1/5 364/1/5
f 367/1/5 365/1/5 366/1/5
f 368/1/5 366/1/5 364/1/5
f 368/3/5 367/3/5 366/3/5
f 369/3/5 367/3/5 368/3/5
f 370/1/5 363/1/5 362/1/5
f 371/1/5 363/1/5 370/1/5
f 372/3/5 371/3/5 370/3/5
f 373/1/5 363/1/5 371/1/5
f 373/3/5 371/3/5 372/3/5
f 374/1/5 368/1/5 364/1/5
f 374/1/5 369/1/5 368/1/5
f 375/1/5 369/1/5 374/1/5
f 376/1/5 374/1/5 364/1/5
f 376/3/5 375/3/5 374/3/5
f 377/3/5 375/3/5 376/3/5
f 378/1/5 373/1/5 372/1/5
f 379/1/5 363/1/5 373/1/5
f 379/1/5 373/1/5 378/1/5
f 380/1/5 376/1/5 364/1/5
f 380/1/5 377/1/5 376/1/5
f 381/1/5 377/1/5 380/1/5
f 382/3/5 379/3/5 378/3/5
f 383/1/5 363/1/5 379/1/5
f 383/3/5 379/3/5 382/3/5
f 384/1/5 380/1/5 364/1/5
f 384/3/5 381/3/5 380/3/5
f 385/3/5 381/3/5 384/3/5
f 386/1/5 383/1/5 382/1/5
f 387/1/5 363/1/5 383/1/5
f 387/1/5 383/1/5 386/1/5
f 388/1/5 384/1/5 364/1/5
f 388/1/5 385/1/5 384/1/5
f 389/1/5 385/1/5 388/1/5
f 395/3/5 391/3/5 390/3/5
f 396/1/5 392/1/5 391/1/5
f 396/3/5 391/3/5 395/3/5
f 397/1/5 392/1/5 396/1/5
f 398/1/5 392/1/5 397/1/5
f 399/1/5 392/1/5 398/1/5
f 400/1/5 392/1/5 399/1/5
f 401/3/5 393/3/5 392/3/5
f 401/1/5 392/1/5 400/1/5
f 402/1/5 394/1/5 393/1/5
f 402/3/5 393/3/5 401/3/5
f 403/1/5 396/1/5 395/1/5
f 403/1/5 397/1/5 396/1/5
f 404/1/5 397/1/5 403/1/5
f 405/3/5 398/3/5 397/3/5
f 405/1/5 397/1/5 404/1/5
f 406/1/5 399/1/5 398/1/5
f 406/3/5 398/3/5 405/3/5
f 407/1/5 399/1/5 406/1/5
f 408/3/5 400/3/5 399/3/5
f 408/1/5 399/1/5 407/1/5
f 409/1/5 401/1/5 400/1/5
f 409/3/5 400/3/5 408/3/5
f 409/1/5 402/1/5 401/1/5
f 410/3/5 404/3/5 403/3/5
f 411/1/5 406/1/5 405/1/5
f 411/3/5 404/3/5 410/3/5
f 411/1/5 405/1/5 404/1/5
f 412/3/5 407/3/5 406/3/5
f 412/1/5 406/1/5 411/1/5
f 413/1/5 408/1/5 407/1/5
f 413/3/5 407/3/5 412/3/5
f 413/1/5 409/1/5 408/1/5
f 414/1/5 412/1/5 411/1/5
f 414/1/5 409/1/5 413/1/5
f 414/1/5 413/1/5 412/1/5
f 414/1/5 411/1/5 410/1/5
f 415/1/5 409/1/5 414/1/5
f 416/1/5 414/1/5 410/1/5
f 417/1/5 414/1/5 416/1/5
f 418/3/5 415/3/5 414/3/5
f 418/1/5 414/1/5 417/1/5
f 419/1/5 409/1/5 415/1/5
f 419/3/5 415/3/5 418/3/5
f 420/3/5 417/3/5 416/3/5
f 420/1/5 416/1/5 410/1/5
f 421/1/5 418/1/5 417/1/5
f 421/3/5 417/3/5 420/3/5
f 421/1/5 419/1/5 418/1/5
f 422/1/5 409/1/5 419/1/5
f 422/1/5 419/1/5 421/1/5
f 423/1/5 402/1/5 409/1/5
f 423/1/5 409/1/5 422/1/5
f 424/1/5 422/1/5 421/1/5
f 424/1/5 421/1/5 420/1/5
f 424/3/5 423/3/5 422/3/5
f 425/1/5 402/1/5 423/1/5
f 425/3/5 423/3/5 424/3/5
f 426/1/5 424/1/5 420/1/5
f 426/1/5 420/1/5 410/1/5
f 426/1/5 425/1/5 424/1/5
f 427/1/5 402/1/5 425/1/5
f 427/1/5 425/1/5 426/1/5
f 427/1/5 394/1/5 402/1/5
f 432/4/5 429/4/5 428/4/5
f 432/4/5 431/4/5 430/4/5
f 432/4/5 430/4/5 429/4/5
f 433/4/5 431/4/5 432/4/5
f 434/1/6 435/1/6 442/1/6
f 435/3/6 436/3/6 442/3/6
f 436/1/6 437/1/6 443/1/6
f 442/3/6 436/3/6 443/3/6
f 443/1/6 437/1/6 444/1/6
f 444/1/6 437/1/6 445/1/6
f 445/1/6 437/1/6 446/1/6
f 446/1/6 437/1/6 447/1/6
f 437/3/6 438/3/6 448/3/6
f 447/1/6 437/1/6 448/1/6
f 438/1/6 439/1/6 449/1/6
f 448/3/6 438/3/6 449/3/6
f 439/3/6 440/3/6 450/3/6
f 449/1/6 439/1/6 450/1/6
f 440/1/6 441/1/6 451/1/6
f 450/3/6 440/3/6 451/3/6
f 434/1/6 442/1/6 452/1/6
f 442/1/6 443/1/6 452/1/6
f 443/1/6 444/1/6 452/1/6
f 452/1/6 444/1/6 453/1/6
f 453/1/6 444/1/6 454/1/6
f 444/3/6 445/3/6 455/3/6
f 454/1/6 444/1/6 455/1/6
f 445/1/6 446/1/6 456/1/6
f 455/3/6 445/3/6 456/3/6
f 456/1/6 446/1/6 457/1/6
f 446/3/6 447/3/6 458/3/6
f 457/1/6 446/1/6 458/1/6
f 449/1/6 450/1/6 459/1/6
f 458/3/6 447/3/6 459/3/6
f 448/1/6 449/1/6 459/1/6
f 447/1/6 448/1/6 459/1/6
f 450/1/6 451/1/6 459/1/6
f 459/1/6 451/1/6 460/1/6
f 452/3/6 453/3/6 461/3/6
f 434/1/6 452/1/6 461/1/6
f 461/3/6 453/3/6 462/3/6
f 453/1/6 454/1/6 463/1/6
f 462/3/6 453/3/6 463/3/6
f 463/1/6 454/1/6 464/1/6
f 455/1/6 456/1/6 465/1/6
f 456/3/6 457/3/6 466/3/6
f 465/1/6 456/1/6 466/1/6
f 457/1/6 458/1/6 467/1/6
f 466/3/6 457/3/6 467/3/6
f 458/1/6 459/1/6 467/1/6
f 467/1/6 459/1/6 468/1/6
f 460/1/6 451/1/6 469/1/6
f 469/1/6 451/1/6 470/1/6
f 451/1/6 441/1/6 471/1/6
f 470/1/6 451/1/6 471/1/6
f 461/1/6 462/1/6 472/1/6
f 434/1/6 461/1/6 472/1/6
f 472/1/6 462/1/6 473/1/6
f 465/1/6 466/1/6 474/1/6
f 464/1/6 465/1/6 474/1/6
f 467/1/6 468/1/6 474/1/6
f 466/1/6 467/1/6 474/1/6
f 468/1/6 469/1/6 474/1/6
f 474/1/6 469/1/6 475/1/6
f 470/3/6 471/3/6 476/3/6
f 471/1/6 441/1/6 477/1/6
f 476/3/6 471/3/6 477/3/6
f 477/1/6 441/1/6 478/1/6
f 475/1/6 476/1/6 479/1/6
f 474/1/6 475/1/6 479/1/6
f 473/1/6 474/1/6 479/1/6
f 479/1/6 476/1/6 480/1/6
f 480/1/6 476/1/6 481/1/6
f 481/1/6 476/1/6 482/1/6
f 477/3/6 478/3/6 483/3/6
f 483/3/6 478/3/6 484/3/6
f 434/1/6 472/1/6 485/1/6
f 485/1/6 472/1/6 486/1/6
f 480/1/6 481/1/6 487/1/6
f 487/1/6 481/1/6 488/1/6
f 485/3/6 486/3/6 489/3/6
f 489/3/6 486/3/6 490/3/6
f 480/1/6 487/1/6 491/1/6
f 491/1/6 487/1/6 492/1/6
f 487/3/6 488/3/6 493/3/6
f 492/1/6 487/1/6 493/1/6
f 488/1/6 481/1/6 494/1/6
f 493/3/6 488/3/6 494/3/6
f 491/3/6 492/3/6 495/3/6
f 492/1/6 493/1/6 496/1/6
f 495/3/6 492/3/6 496/3/6
f 493/1/6 494/1/6 496/1/6
f 494/1/6 481/1/6 497/1/6
f 496/1/6 494/1/6 497/1/6
f 497/1/6 481/1/6 498/1/6
f 498/1/6 481/1/6 499/1/6
f 482/1/6 476/1/6 500/1/6
f 483/1/6 484/1/6 501/1/6
f 501/1/6 484/1/6 502/1/6
f 473/1/6 479/1/6 503/1/6
f 495/1/6 496/1/6 504/1/6
f 496/1/6 497/1/6 504/1/6
f 497/3/6 498/3/6 505/3/6
f 504/1/6 497/1/6 505/1/6
f 498/1/6 499/1/6 506/1/6
f 505/3/6 498/3/6 506/3/6
f 499/1/6 500/1/6 506/1/6
f 501/3/6 502/3/6 507/3/6
f 507/3/6 502/3/6 508/3/6
f 504/1/6 505/1/6 509/1/6
f 473/1/6 503/1/6 509/1/6
f 503/1/6 504/1/6 509/1/6
f 505/1/6 506/1/6 509/1/6
f 509/1/6 506/1/6 510/1/6
f 510/1/6 506/1/6 511/1/6
f 511/1/6 506/1/6 512/1/6
f 512/1/6 506/1/6 513/1/6
f 506/1/6 500/1/6 514/1/6
f 513/1/6 506/1/6 514/1/6
f 514/1/6 500/1/6 515/1/6
f 511/1/6 512/1/6 517/1/6
f 517/1/6 512/1/6 518/1/6
f 513/1/6 514/1/6 519/1/6
f 516/1/6 517/1/6 520/1/6
f 518/1/6 519/1/6 521/1/6
f 489/1/6 490/1/6 522/1/6
f 522/1/6 490/1/6 523/1/6
f 473/1/6 509/1/6 524/1/6
f 520/1/6 521/1/6 525/1/6
f 516/1/6 520/1/6 525/1/6
f 522/3/6 523/3/6 526/3/6
f 526/3/6 523/3/6 527/3/6
f 524/1/6 525/1/6 528/1/6
f 519/1/6 514/1/6 528/1/6
f 521/1/6 519/1/6 528/1/6
f 525/1/6 521/1/6 528/1/6
f 515/1/6 500/1/6 529/1/6
f 473/1/6 524/1/6 530/1/6
f 528/1/6 529/1/6 530/1/6
f 524/1/6 528/1/6 530/1/6
f 529/1/6 500/1/6 531/1/6
f 530/1/6 529/1/6 531/1/6
f 500/1/6 476/1/6 531/1/6
f 526/1/6 527/1/6 532/1/6
f 532/1/6 527/1/6 533/1/6
f 507/1/6 508/1/6 534/1/6
f 534/1/6 508/1/6 535/1/6
f 536/2/6 537/2/6 538/2/6
f 538/2/6 537/2/6 539/2/6
f 542/2/6 543/2/6 544/2/6
f 544/2/6 543/2/6 545/2/6
f 540/2/6 541/2/6 546/2/6
f 546/2/6 541/2/6 547/2/6
f 548/2/6 549/2/6 553/2/6
f 549/6/6 550/6/6 553/6/6
f 553/6/6 550/6/6 554/6/6
f 551/6/6 552/6/6 555/6/6
f 555/6/6 552/6/6 556/6/6
f 554/6/6 555/6/6 557/6/6
f 557/6/6 555/6/6 558/6/6
f 548/2/6 553/2/6 559/2/6
f 559/2/6 553/2/6 560/2/6
f 561/2/6 562/2/6 566/2/6
f 566/2/6 562/2/6 567/2/6
f 563/2/6 564/2/6 568/2/6
f 568/2/6 564/2/6 569/2/6
f 565/2/6 566/2/6 571/2/6
f 571/2/6 566/2/6 572/2/6
f 569/2/6 570/2/6 573/2/6
f 573/2/6 570/2/6 574/2/6
f 575/4/6 576/4/6 579/4/6
f 579/4/6 576/4/6 580/4/6
f 577/4/6 578/4/6 581/4/6
f 581/4/6 578/4/6 582/4/6
f 583/4/6 584/4/6 587/4/6
f 587/4/6 584/4/6 588/4/6
f 585/4/6 586/4/6 589/4/6
f 589/4/6 586/4/6 590/4/6
f 591/4/6 592/4/6 595/4/6
f 595/4/6 592/4/6 596/4/6
f 593/4/6 594/4/6 597/4/6
f 597/4/6 594/4/6 598/4/6
f 591/4/6 595/4/6 599/4/6
f 599/4/6 595/4/6 600/4/6
f 598/4/6 594/4/6 601/4/6
f 601/4/6 594/4/6 602/4/6
f 603/4/6 604/4/6 606/4/6
f 606/4/6 604/4/6 607/4/6
f 605/4/6 606/4/6 607/4/6
f 605/4/6 607/4/6 609/4/6
f 607/4/6 608/4/6 609/4/6
f 609/4/6 608/4/6 610/4/6
