# MagicaVoxel @ Ephtracy

# group
o 

# material
mtllib body.mtl
usemtl palette

# normals
vn -1 0 0
vn 1 0 0
vn 0 0 1
vn 0 0 -1
vn 0 -1 0
vn 0 1 0

# texcoords
vt 0.201172 0.5
vt 0.833984 0.5
vt 0.958984 0.5
vt 0.962891 0.5
vt 0.990234 0.5

# verts
v -0.8 1.4 -0.1
v -0.8 1.4 -0.3
v -0.8 1.6 -0.1
v -0.8 1.6 -0.3
v -0.8 2.2 -0.1
v -0.8 2.2 -0.3
v -0.7 1.9 0
v -0.7 1.9 -0.1
v -0.7 2.2 0
v -0.7 2.2 -0.1
v -0.6 1.6 0
v -0.6 1.6 -0.1
v -0.6 1.7 0
v -0.6 1.7 -0.1
v -0.6 1.9 0
v -0.6 1.9 -0.1
v -0.5 1.6 0
v -0.5 1.6 -0.1
v -0.5 1.7 0
v -0.5 1.7 -0.1
v -0.4 1.7 0
v -0.4 1.7 -0.1
v -0.4 1.8 0
v -0.4 1.8 -0.1
v -0.3 1.8 0
v -0.3 1.8 -0.1
v -0.3 2.1 0
v -0.3 2.1 -0.1
v -0.3 2.2 0
v -0.3 2.2 -0.1
v -0.2 1.4 -0.1
v -0.2 1.4 -0.3
v -0.2 1.6 -0.1
v -0.2 1.6 -0.3
v -0.2 2.2 -0.1
v -0.2 2.2 -0.3
v -0.7 1.9 0
v -0.7 2.2 0
v -0.6 1.6 0
v -0.6 1.7 0
v -0.6 1.9 0
v -0.6 2 0
v -0.5 1.6 0
v -0.5 1.7 0
v -0.5 2 0
v -0.4 1.7 0
v -0.4 1.8 0
v -0.4 2.1 0
v -0.4 2.2 0
v -0.3 1.8 0
v -0.3 2.1 0
v -0.3 2.2 0
v -0.8 1.4 -0.1
v -0.8 1.6 -0.1
v -0.8 2.2 -0.1
v -0.7 1.6 -0.1
v -0.7 1.9 -0.1
v -0.7 2.2 -0.1
v -0.6 1.6 -0.1
v -0.6 1.7 -0.1
v -0.6 1.9 -0.1
v -0.5 1.6 -0.1
v -0.5 1.7 -0.1
v -0.4 1.6 -0.1
v -0.4 1.7 -0.1
v -0.4 1.8 -0.1
v -0.3 1.6 -0.1
v -0.3 1.8 -0.1
v -0.3 2.1 -0.1
v -0.3 2.2 -0.1
v -0.2 1.4 -0.1
v -0.2 1.6 -0.1
v -0.2 2.2 -0.1
v -0.8 1.4 -0.3
v -0.8 1.6 -0.3
v -0.8 2.2 -0.3
v -0.7 1.6 -0.3
v -0.7 2.2 -0.3
v -0.6 1.6 -0.3
v -0.6 2.2 -0.3
v -0.4 1.6 -0.3
v -0.4 2.2 -0.3
v -0.3 1.6 -0.3
v -0.3 2.2 -0.3
v -0.2 1.4 -0.3
v -0.2 1.6 -0.3
v -0.2 2.2 -0.3
v -0.8 1.4 -0.1
v -0.2 1.4 -0.1
v -0.8 1.4 -0.3
v -0.2 1.4 -0.3
v -0.6 1.6 0
v -0.5 1.6 0
v -0.6 1.6 -0.1
v -0.5 1.6 -0.1
v -0.5 1.7 0
v -0.4 1.7 0
v -0.5 1.7 -0.1
v -0.4 1.7 -0.1
v -0.4 1.8 0
v -0.3 1.8 0
v -0.4 1.8 -0.1
v -0.3 1.8 -0.1
v -0.7 1.9 0
v -0.6 1.9 0
v -0.7 1.9 -0.1
v -0.6 1.9 -0.1
v -0.7 2.2 0
v -0.4 2.2 0
v -0.3 2.2 0
v -0.8 2.2 -0.1
v -0.7 2.2 -0.1
v -0.4 2.2 -0.1
v -0.3 2.2 -0.1
v -0.2 2.2 -0.1
v -0.7 2.2 -0.2
v -0.6 2.2 -0.2
v -0.4 2.2 -0.2
v -0.3 2.2 -0.2
v -0.8 2.2 -0.3
v -0.7 2.2 -0.3
v -0.6 2.2 -0.3
v -0.4 2.2 -0.3
v -0.3 2.2 -0.3
v -0.2 2.2 -0.3

# faces
f 3/2/1 2/2/1 1/2/1
f 4/2/1 2/2/1 3/2/1
f 5/5/1 4/5/1 3/5/1
f 6/5/1 4/5/1 5/5/1
f 9/3/1 8/3/1 7/3/1
f 10/3/1 8/3/1 9/3/1
f 13/3/1 12/3/1 11/3/1
f 14/3/1 12/3/1 13/3/1
f 15/4/1 14/4/1 13/4/1
f 16/4/1 14/4/1 15/4/1
f 17/3/2 18/3/2 19/3/2
f 19/3/2 18/3/2 20/3/2
f 21/3/2 22/3/2 23/3/2
f 23/3/2 22/3/2 24/3/2
f 25/3/2 26/3/2 27/3/2
f 27/3/2 26/3/2 28/3/2
f 27/4/2 28/4/2 29/4/2
f 29/4/2 28/4/2 30/4/2
f 31/2/2 32/2/2 33/2/2
f 33/2/2 32/2/2 34/2/2
f 33/5/2 34/5/2 35/5/2
f 35/5/2 34/5/2 36/5/2
f 41/3/3 38/3/3 37/3/3
f 42/3/3 38/3/3 41/3/3
f 43/3/3 40/3/3 39/3/3
f 44/4/3 41/4/3 40/4/3
f 44/3/3 40/3/3 43/3/3
f 44/4/3 42/4/3 41/4/3
f 45/3/3 38/3/3 42/3/3
f 45/4/3 42/4/3 44/4/3
f 46/3/3 45/3/3 44/3/3
f 47/3/3 45/3/3 46/3/3
f 48/3/3 38/3/3 45/3/3
f 48/3/3 45/3/3 47/3/3
f 49/3/3 38/3/3 48/3/3
f 50/3/3 48/3/3 47/3/3
f 51/4/3 49/4/3 48/4/3
f 51/3/3 48/3/3 50/3/3
f 52/4/3 49/4/3 51/4/3
f 56/2/3 54/2/3 53/2/3
f 56/5/3 55/5/3 54/5/3
f 57/5/3 55/5/3 56/5/3
f 58/5/3 55/5/3 57/5/3
f 59/2/3 56/2/3 53/2/3
f 59/2/3 57/2/3 56/2/3
f 60/2/3 57/2/3 59/2/3
f 61/2/3 57/2/3 60/2/3
f 62/2/3 59/2/3 53/2/3
f 64/2/3 62/2/3 53/2/3
f 64/5/3 63/5/3 62/5/3
f 65/5/3 63/5/3 64/5/3
f 67/2/3 64/2/3 53/2/3
f 67/2/3 66/2/3 65/2/3
f 67/2/3 65/2/3 64/2/3
f 68/2/3 66/2/3 67/2/3
f 71/2/3 67/2/3 53/2/3
f 72/5/3 68/5/3 67/5/3
f 72/2/3 67/2/3 71/2/3
f 72/5/3 70/5/3 69/5/3
f 72/5/3 69/5/3 68/5/3
f 73/5/3 70/5/3 72/5/3
f 74/2/4 75/2/4 77/2/4
f 75/5/4 76/5/4 77/5/4
f 77/5/4 76/5/4 78/5/4
f 74/2/4 77/2/4 79/2/4
f 77/2/4 78/2/4 79/2/4
f 79/2/4 78/2/4 80/2/4
f 74/2/4 79/2/4 81/2/4
f 79/5/4 80/5/4 81/5/4
f 81/5/4 80/5/4 82/5/4
f 74/2/4 81/2/4 83/2/4
f 81/2/4 82/2/4 83/2/4
f 83/2/4 82/2/4 84/2/4
f 74/2/4 83/2/4 85/2/4
f 83/5/4 84/5/4 86/5/4
f 85/2/4 83/2/4 86/2/4
f 86/5/4 84/5/4 87/5/4
f 90/2/5 89/2/5 88/2/5
f 91/2/5 89/2/5 90/2/5
f 94/3/5 93/3/5 92/3/5
f 95/3/5 93/3/5 94/3/5
f 98/3/5 97/3/5 96/3/5
f 99/3/5 97/3/5 98/3/5
f 102/3/5 101/3/5 100/3/5
f 103/3/5 101/3/5 102/3/5
f 106/3/5 105/3/5 104/3/5
f 107/3/5 105/3/5 106/3/5
f 108/3/6 109/3/6 112/3/6
f 109/4/6 110/4/6 113/4/6
f 112/3/6 109/3/6 113/3/6
f 113/4/6 110/4/6 114/4/6
f 111/5/6 112/5/6 116/5/6
f 112/1/6 113/1/6 116/1/6
f 113/1/6 114/1/6 116/1/6
f 116/1/6 114/1/6 117/1/6
f 117/1/6 114/1/6 118/1/6
f 114/5/6 115/5/6 119/5/6
f 118/1/6 114/1/6 119/1/6
f 111/5/6 116/5/6 120/5/6
f 116/2/6 117/2/6 121/2/6
f 120/5/6 116/5/6 121/5/6
f 117/5/6 118/5/6 122/5/6
f 121/2/6 117/2/6 122/2/6
f 118/2/6 119/2/6 123/2/6
f 122/5/6 118/5/6 123/5/6
f 119/5/6 115/5/6 124/5/6
f 123/2/6 119/2/6 124/2/6
f 124/5/6 115/5/6 125/5/6
