# MagicaVoxel @ Ephtracy

# group
o 

# material
mtllib braid.mtl
usemtl palette

# normals
vn -1 0 0
vn 1 0 0
vn 0 0 1
vn 0 0 -1
vn 0 -1 0
vn 0 1 0

# texcoords
vt 0.337891 0.5
vt 0.962891 0.5
vt 0.982422 0.5

# verts
v -1.6 0 0.8
v -1.6 0 0.7
v -1.6 0.1 0.8
v -1.6 0.1 0.7
v -1.5 0 0.7
v -1.5 0 0.6
v -1.5 0.1 0.7
v -1.5 0.1 0.6
v -1.4 0 0.6
v -1.4 0 0.5
v -1.4 0.1 0.6
v -1.4 0.1 0.5
v -1.2 0 0.5
v -1.2 0 0.4
v -1.2 0.1 0.5
v -1.2 0.1 0.4
v -1 0 0.4
v -1 0 0.3
v -1 0.1 0.4
v -1 0.1 0.3
v -0.9 0 2.2
v -0.9 0 2.1
v -0.9 0.1 2.2
v -0.9 0.1 2.1
v -0.8 0 2.1
v -0.8 0 1.4
v -0.8 0 1.3
v -0.8 0 0.8
v -0.8 0 0.4
v -0.8 0.1 2.1
v -0.8 0.1 1.4
v -0.8 0.1 1.3
v -0.8 0.1 0.8
v -0.8 0.1 0.4
v -1.4 0 0.8
v -1.4 0 0.7
v -1.4 0.1 0.8
v -1.4 0.1 0.7
v -1.3 0 0.7
v -1.3 0 0.6
v -1.3 0.1 0.7
v -1.3 0.1 0.6
v -1.1 0 0.6
v -1.1 0 0.5
v -1.1 0.1 0.6
v -1.1 0.1 0.5
v -0.9 0 0.5
v -0.9 0 0.4
v -0.9 0.1 0.5
v -0.9 0.1 0.4
v -0.7 0 2.1
v -0.7 0 1.4
v -0.7 0 1.3
v -0.7 0 0.8
v -0.7 0 0.4
v -0.7 0.1 2.1
v -0.7 0.1 1.4
v -0.7 0.1 1.3
v -0.7 0.1 0.8
v -0.7 0.1 0.4
v -0.6 0 0.4
v -0.6 0 0.3
v -0.6 0.1 0.4
v -0.6 0.1 0.3
v -0.5 0 1.4
v -0.5 0 1.3
v -0.5 0.1 1.4
v -0.5 0.1 1.3
v -0.4 0 2.2
v -0.4 0 2.1
v -0.4 0.1 2.2
v -0.4 0.1 2.1
v -0.9 0 2.2
v -0.9 0.1 2.2
v -0.4 0 2.2
v -0.4 0.1 2.2
v -0.7 0 1.4
v -0.7 0.1 1.4
v -0.5 0 1.4
v -0.5 0.1 1.4
v -1.6 0 0.8
v -1.6 0.1 0.8
v -1.4 0 0.8
v -1.4 0.1 0.8
v -1.4 0 0.7
v -1.4 0.1 0.7
v -1.3 0 0.7
v -1.3 0.1 0.7
v -1.3 0 0.6
v -1.3 0.1 0.6
v -1.1 0 0.6
v -1.1 0.1 0.6
v -1.1 0 0.5
v -1.1 0.1 0.5
v -0.9 0 0.5
v -0.9 0.1 0.5
v -0.9 0 0.4
v -0.9 0.1 0.4
v -0.8 0 0.4
v -0.8 0.1 0.4
v -0.7 0 0.4
v -0.7 0.1 0.4
v -0.6 0 0.4
v -0.6 0.1 0.4
v -0.9 0 2.1
v -0.9 0.1 2.1
v -0.8 0 2.1
v -0.8 0.1 2.1
v -0.7 0 2.1
v -0.7 0.1 2.1
v -0.4 0 2.1
v -0.4 0.1 2.1
v -0.7 0 1.3
v -0.7 0.1 1.3
v -0.5 0 1.3
v -0.5 0.1 1.3
v -1.6 0 0.7
v -1.6 0.1 0.7
v -1.5 0 0.7
v -1.5 0.1 0.7
v -1.5 0 0.6
v -1.5 0.1 0.6
v -1.4 0 0.6
v -1.4 0.1 0.6
v -1.4 0 0.5
v -1.4 0.1 0.5
v -1.2 0 0.5
v -1.2 0.1 0.5
v -1.2 0 0.4
v -1.2 0.1 0.4
v -1 0 0.4
v -1 0.1 0.4
v -1 0 0.3
v -1 0.1 0.3
v -0.6 0 0.3
v -0.6 0.1 0.3
v -0.9 0 2.2
v -0.4 0 2.2
v -0.9 0 2.1
v -0.8 0 2.1
v -0.7 0 2.1
v -0.4 0 2.1
v -0.8 0 1.4
v -0.7 0 1.4
v -0.5 0 1.4
v -0.8 0 1.3
v -0.7 0 1.3
v -0.5 0 1.3
v -1.6 0 0.8
v -1.4 0 0.8
v -0.8 0 0.8
v -0.7 0 0.8
v -1.6 0 0.7
v -1.5 0 0.7
v -1.4 0 0.7
v -1.3 0 0.7
v -1.5 0 0.6
v -1.4 0 0.6
v -1.3 0 0.6
v -1.1 0 0.6
v -1.4 0 0.5
v -1.2 0 0.5
v -1.1 0 0.5
v -0.9 0 0.5
v -1.2 0 0.4
v -1 0 0.4
v -0.9 0 0.4
v -0.8 0 0.4
v -0.7 0 0.4
v -0.6 0 0.4
v -1 0 0.3
v -0.6 0 0.3
v -0.9 0.1 2.2
v -0.4 0.1 2.2
v -0.9 0.1 2.1
v -0.8 0.1 2.1
v -0.7 0.1 2.1
v -0.4 0.1 2.1
v -0.8 0.1 1.4
v -0.7 0.1 1.4
v -0.5 0.1 1.4
v -0.8 0.1 1.3
v -0.7 0.1 1.3
v -0.5 0.1 1.3
v -1.6 0.1 0.8
v -1.4 0.1 0.8
v -0.8 0.1 0.8
v -0.7 0.1 0.8
v -1.6 0.1 0.7
v -1.5 0.1 0.7
v -1.4 0.1 0.7
v -1.3 0.1 0.7
v -1.5 0.1 0.6
v -1.4 0.1 0.6
v -1.3 0.1 0.6
v -1.1 0.1 0.6
v -1.4 0.1 0.5
v -1.2 0.1 0.5
v -1.1 0.1 0.5
v -0.9 0.1 0.5
v -1.2 0.1 0.4
v -1 0.1 0.4
v -0.9 0.1 0.4
v -0.8 0.1 0.4
v -0.7 0.1 0.4
v -0.6 0.1 0.4
v -1 0.1 0.3
v -0.6 0.1 0.3

# faces
f 3/2/1 2/2/1 1/2/1
f 4/2/1 2/2/1 3/2/1
f 7/2/1 6/2/1 5/2/1
f 8/2/1 6/2/1 7/2/1
f 11/2/1 10/2/1 9/2/1
f 12/2/1 10/2/1 11/2/1
f 15/2/1 14/2/1 13/2/1
f 16/2/1 14/2/1 15/2/1
f 19/2/1 18/2/1 17/2/1
f 20/2/1 18/2/1 19/2/1
f 23/3/1 22/3/1 21/3/1
f 24/3/1 22/3/1 23/3/1
f 30/1/1 26/1/1 25/1/1
f 31/3/1 27/3/1 26/3/1
f 31/1/1 26/1/1 30/1/1
f 32/1/1 28/1/1 27/1/1
f 32/3/1 27/3/1 31/3/1
f 33/2/1 29/2/1 28/2/1
f 33/1/1 28/1/1 32/1/1
f 34/2/1 29/2/1 33/2/1
f 35/2/2 36/2/2 37/2/2
f 37/2/2 36/2/2 38/2/2
f 39/2/2 40/2/2 41/2/2
f 41/2/2 40/2/2 42/2/2
f 43/2/2 44/2/2 45/2/2
f 45/2/2 44/2/2 46/2/2
f 47/2/2 48/2/2 49/2/2
f 49/2/2 48/2/2 50/2/2
f 51/1/2 52/1/2 56/1/2
f 56/1/2 52/1/2 57/1/2
f 53/1/2 54/1/2 58/1/2
f 54/2/2 55/2/2 59/2/2
f 58/1/2 54/1/2 59/1/2
f 59/2/2 55/2/2 60/2/2
f 61/2/2 62/2/2 63/2/2
f 63/2/2 62/2/2 64/2/2
f 65/3/2 66/3/2 67/3/2
f 67/3/2 66/3/2 68/3/2
f 69/3/2 70/3/2 71/3/2
f 71/3/2 70/3/2 72/3/2
f 75/3/3 74/3/3 73/3/3
f 76/3/3 74/3/3 75/3/3
f 79/3/3 78/3/3 77/3/3
f 80/3/3 78/3/3 79/3/3
f 83/2/3 82/2/3 81/2/3
f 84/2/3 82/2/3 83/2/3
f 87/2/3 86/2/3 85/2/3
f 88/2/3 86/2/3 87/2/3
f 91/2/3 90/2/3 89/2/3
f 92/2/3 90/2/3 91/2/3
f 95/2/3 94/2/3 93/2/3
f 96/2/3 94/2/3 95/2/3
f 99/2/3 98/2/3 97/2/3
f 100/2/3 98/2/3 99/2/3
f 103/2/3 102/2/3 101/2/3
f 104/2/3 102/2/3 103/2/3
f 105/3/4 106/3/4 107/3/4
f 107/3/4 106/3/4 108/3/4
f 109/3/4 110/3/4 111/3/4
f 111/3/4 110/3/4 112/3/4
f 113/3/4 114/3/4 115/3/4
f 115/3/4 114/3/4 116/3/4
f 117/2/4 118/2/4 119/2/4
f 119/2/4 118/2/4 120/2/4
f 121/2/4 122/2/4 123/2/4
f 123/2/4 122/2/4 124/2/4
f 125/2/4 126/2/4 127/2/4
f 127/2/4 126/2/4 128/2/4
f 129/2/4 130/2/4 131/2/4
f 131/2/4 130/2/4 132/2/4
f 133/2/4 134/2/4 135/2/4
f 135/2/4 134/2/4 136/2/4
f 139/3/5 138/3/5 137/3/5
f 140/3/5 138/3/5 139/3/5
f 141/3/5 138/3/5 140/3/5
f 142/3/5 138/3/5 141/3/5
f 143/1/5 141/1/5 140/1/5
f 144/1/5 141/1/5 143/1/5
f 146/3/5 144/3/5 143/3/5
f 146/3/5 145/3/5 144/3/5
f 147/3/5 145/3/5 146/3/5
f 148/3/5 145/3/5 147/3/5
f 151/1/5 147/1/5 146/1/5
f 152/1/5 147/1/5 151/1/5
f 153/2/5 150/2/5 149/2/5
f 154/2/5 150/2/5 153/2/5
f 155/2/5 150/2/5 154/2/5
f 157/2/5 156/2/5 155/2/5
f 157/2/5 155/2/5 154/2/5
f 158/2/5 156/2/5 157/2/5
f 159/2/5 156/2/5 158/2/5
f 161/2/5 160/2/5 159/2/5
f 161/2/5 159/2/5 158/2/5
f 162/2/5 160/2/5 161/2/5
f 163/2/5 160/2/5 162/2/5
f 165/2/5 164/2/5 163/2/5
f 165/2/5 163/2/5 162/2/5
f 166/2/5 164/2/5 165/2/5
f 167/2/5 164/2/5 166/2/5
f 168/2/5 152/2/5 151/2/5
f 169/2/5 152/2/5 168/2/5
f 171/2/5 169/2/5 168/2/5
f 171/2/5 170/2/5 169/2/5
f 171/2/5 168/2/5 167/2/5
f 171/2/5 167/2/5 166/2/5
f 172/2/5 170/2/5 171/2/5
f 173/3/6 174/3/6 175/3/6
f 175/3/6 174/3/6 176/3/6
f 176/3/6 174/3/6 177/3/6
f 177/3/6 174/3/6 178/3/6
f 176/1/6 177/1/6 179/1/6
f 179/1/6 177/1/6 180/1/6
f 179/3/6 180/3/6 182/3/6
f 180/3/6 181/3/6 182/3/6
f 182/3/6 181/3/6 183/3/6
f 183/3/6 181/3/6 184/3/6
f 182/1/6 183/1/6 187/1/6
f 187/1/6 183/1/6 188/1/6
f 185/2/6 186/2/6 189/2/6
f 189/2/6 186/2/6 190/2/6
f 190/2/6 186/2/6 191/2/6
f 191/2/6 192/2/6 193/2/6
f 190/2/6 191/2/6 193/2/6
f 193/2/6 192/2/6 194/2/6
f 194/2/6 192/2/6 195/2/6
f 195/2/6 196/2/6 197/2/6
f 194/2/6 195/2/6 197/2/6
f 197/2/6 196/2/6 198/2/6
f 198/2/6 196/2/6 199/2/6
f 199/2/6 200/2/6 201/2/6
f 198/2/6 199/2/6 201/2/6
f 201/2/6 200/2/6 202/2/6
f 202/2/6 200/2/6 203/2/6
f 187/2/6 188/2/6 204/2/6
f 204/2/6 188/2/6 205/2/6
f 204/2/6 205/2/6 207/2/6
f 205/2/6 206/2/6 207/2/6
f 203/2/6 204/2/6 207/2/6
f 202/2/6 203/2/6 207/2/6
f 207/2/6 206/2/6 208/2/6
